PathFileType	4	(X/Y/Z)	Patient4_TMGait_0pt6_02_left_40.trc.trc
DataRate	CameraRate	NumFrames	NumMarkers	Units	OrigDataRate	OrigDataStartFrame	OrigNumFrames
78.212290502793	78.212290502793	6	33	mm	78.212290502793	18	       141
Frame#	Time	Sacral			L.Shoulder			Chest			R.Shoulder			Neck			R.ASIS			L.ASIS			R.Thigh.Superior			R.Thigh.Lateral			R.Thigh.Inferior			R.Patella			L.Thigh.Superior			L.Thigh.Lateral			L.Thigh.Inferior			L.Patella			L.Shank.Superior			L.Shank.Lateral			L.Shank.Inferior			R.Shank.Superior			R.Shank.Lateral			R.Shank.Inferior			R.Heel			R.Midfoot.Superior			R.Midfoot.Lateral			R.Toe			L.Heel			L.Midfoot.Lateral			L.Midfoot.Superior			L.Toe			L.Elbow			L.Wrist			R.Elbow			R.Wrist			
		X1	Y1	Z1	X2	Y2	Z2	X3	Y3	Z3	X4	Y4	Z4	X5	Y5	Z5	X6	Y6	Z6	X7	Y7	Z7	X8	Y8	Z8	X9	Y9	Z9	X10	Y10	Z10	X11	Y11	Z11	X12	Y12	Z12	X13	Y13	Z13	X14	Y14	Z14	X15	Y15	Z15	X16	Y16	Z16	X17	Y17	Z17	X18	Y18	Z18	X19	Y19	Z19	X20	Y20	Z20	X21	Y21	Z21	X22	Y22	Z22	X23	Y23	Z23	X24	Y24	Z24	X25	Y25	Z25	X26	Y26	Z26	X27	Y27	Z27	X28	Y28	Z28	X29	Y29	Z29	X30	Y30	Z30	X31	Y31	Z31	X32	Y32	Z32	X33	Y33	Z33	

18	49.017357142857	813.303136796708	1019.288280120323	574.071660399211	1009.439072176890	1429.865152339911	375.983790796821	1127.127371702080	1342.588008581678	516.995985365256	1083.090571950925	1426.141088661489	698.835899833273	1042.625737454776	1486.030454434307	524.598023225921	1042.309194539798	932.013621599192	664.852660456894	1003.030439092469	957.633909983566	391.403618936871	1040.979418745788	721.888213012247	637.172389222544	943.077592439910	630.886594855854	705.699821989690	999.994323413389	564.344392813170	621.870829501136	982.687419127686	480.502870713955	628.781639898546	1080.505838173148	787.250513926549	429.124565003461	1047.492800825042	660.679273393287	343.759209070761	1146.966475668873	603.303726571682	413.515063403033	1178.557448041288	537.577360116523	407.196665716860	1160.348513060414	463.290101412849	392.805692353009	1095.925291993032	336.586327907838	330.756543737606	1176.677196979795	233.490613713779	388.371386691658	946.546218277687	396.922099336503	638.939324788035	866.018502110836	302.576881335817	704.198148410938	893.364560762011	203.030806638857	640.584498137548	743.357289576097	44.842152031213	617.101549449754	915.103922653964	96.501893442903	649.655822106808	826.864192132543	37.289365015913	690.163086157169	1035.304142469502	41.547105335808	678.704015569042	1089.587884741393	50.328385095613	412.832664470368	1169.241888041368	59.421335187878	338.893623913868	1236.332081371841	138.171741343626	367.103991473239	1372.852314603228	113.052271219342	350.166151729031	863.676515597116	1099.761015609504	285.516556237989	853.812263685182	838.955149232553	281.494438084045	1180.839649888762	1099.386020956101	795.683837981929	1359.805201586165	1194.514847976148	654.889053018336	
19	49.030142857143	814.974444483122	1017.722503450334	572.037225916249	1009.187286568933	1429.133676513191	374.463501668587	1127.317423264378	1342.021208836764	515.116056143129	1083.215236799445	1425.161804833167	697.037682030339	1042.259829509940	1485.098748171394	523.151337854660	1043.767932428848	930.841350644187	662.999279781479	1004.838884952687	956.166812045901	389.422904507020	1040.110866667629	720.222811236842	635.713247370459	941.084688620702	630.016926067624	704.438918705528	997.147051846831	562.807643742798	620.791745963586	978.827077337067	479.138869180765	627.724439258408	1081.088019361676	783.932070809442	427.863944895930	1046.049718801262	657.563574279831	342.744236933819	1144.534612657718	599.168108486087	412.543145959799	1175.235978733288	534.006071748055	406.580181669666	1158.106173592151	460.120575937146	392.060991574727	1095.324971773753	332.255789435059	330.950442639282	1177.772793563682	230.698588278669	388.908628436686	941.826934555679	395.875408112499	638.058607241299	860.575170035380	302.428679029540	703.647945266809	886.769964179661	202.530537449671	640.180949855705	735.641713321728	44.893715104029	617.108915706355	907.398063244162	96.440649134143	649.605887515439	819.130727193650	37.280407385975	690.149001544706	1027.568071098071	41.419479718229	678.753617596221	1093.230091109868	47.098028138249	414.332387718808	1172.779015595896	56.413011136626	340.372136449241	1239.059765642955	135.759017188230	368.234144182253	1375.778352826377	111.746267197996	351.575046133738	860.770107917966	1100.744969578165	283.688213019613	849.714081810542	839.855753035088	281.011702176831	1187.990326827843	1100.690322298495	791.409102678428	1361.407400653613	1202.891213874709	649.083073539105	
20	49.042928571429	816.815710658589	1015.903921290873	569.729475963876	1009.001280722255	1428.178015084270	372.693830303651	1127.516074695139	1341.383360453344	513.114167722354	1083.101204730837	1424.106383356381	695.097976979741	1041.785625536041	1484.028952831724	521.466076789104	1045.474634097986	929.510975771955	661.041834486361	1006.932009772120	954.470134441263	387.401281329530	1039.607471384742	718.459181788407	634.092371208805	939.465558973848	629.030428412063	703.035563823272	994.688925481480	561.167941495392	619.587965352425	975.324276948457	477.617584957715	626.512128333866	1082.123860854723	780.396477899184	426.242548123841	1044.643169111883	654.142793492395	341.759271066064	1142.479424072145	594.906191079215	411.271041173562	1172.036700076648	529.923456319231	405.736675938124	1155.586571804616	456.398545594159	391.213297542103	1093.411270712677	327.827971633479	331.462397828370	1177.039276099490	227.349978733961	389.552241181942	937.375709780614	394.683499824574	637.050821080894	855.373502387961	302.253764740072	703.053490410448	880.284899238079	201.977133488076	639.744358610199	727.928848428694	44.985000940839	617.142275448849	899.713525068178	96.392715863035	649.568243441764	811.410047752935	37.292730354536	690.152148292164	1019.842879114065	41.245446382277	678.815980947968	1093.723847332908	44.342846368690	416.336854197726	1172.928487288327	53.222836076606	342.062599109822	1239.222930847000	132.354788130422	369.428905922476	1375.754789743021	108.102672311865	352.538122014890	858.467652803677	1101.256845554138	281.727298094509	846.475503369689	840.241991155313	280.377643166661	1194.310864239076	1101.868584418438	787.283756722694	1362.585435932776	1210.043887140723	643.573987805202	
21	49.055714285714	818.790972943334	1013.880950193744	567.180168777831	1008.891530702016	1427.021807053612	370.672625566724	1127.734478915011	1340.681007148144	510.980506670995	1082.787790679070	1422.982263185531	693.018500983130	1041.237256018178	1482.845672475071	519.536414744887	1047.407589510083	928.044960497451	658.975107241504	1009.255968825045	952.599741754311	385.341236025368	1039.491532448615	716.617969957455	632.329287197747	938.235782369897	627.949912584421	701.490376873605	992.653540001085	559.441001084182	618.266667598348	972.214934660425	475.944704965466	625.141653086533	1083.564468016168	776.733172882064	424.230418278084	1043.279274722225	650.504016837754	340.790121304762	1140.845012861579	590.637888453566	409.719815107572	1169.051411799537	525.500135803515	404.729924224259	1152.952208766304	452.283231715395	390.314576954544	1090.541410025203	323.381834307907	332.148307269874	1174.840660494210	223.547832480009	390.253839934466	933.226618587080	393.365402671219	635.913850213893	850.440166836035	302.077767209887	702.417602911766	873.928348743846	201.398090760321	639.280661626483	720.223722354806	45.169463016510	617.215516733707	892.068444005522	96.369284567966	649.548155571717	803.712328340483	37.354033698670	690.181624704548	1012.137806750352	41.017946442527	678.890301062100	1091.503936942089	42.016899501661	418.571601949550	1170.238872817038	49.930205410259	343.788484423658	1237.290338300295	128.103898099523	370.672458591734	1373.341590217809	102.384684281854	353.188906147402	856.788394206589	1101.277224639866	279.639384618649	844.065141679683	840.116767728654	279.553740480153	1199.747670202275	1102.828416275667	783.344494898140	1363.404013965104	1215.952185986678	638.382191432860	
22	49.068500000000	820.856742867415	1011.727099616726	564.431061314527	1008.872966684584	1425.711978824745	368.406438360067	1127.989178110420	1339.934446972422	508.709359260679	1082.333352212355	1421.812477417490	690.803460337097	1040.663330751272	1481.593127742580	517.363873676052	1049.529218639694	926.485652040828	656.791610438645	1011.741531762800	950.643304295994	383.237128432703	1039.769990833669	714.738868238682	630.444559222123	937.403530906844	626.814049049039	699.803622896607	991.071887692214	557.659539618142	616.834459929393	969.541995519162	474.137691880992	623.617450832297	1085.350805466356	773.072854947897	421.827648816795	1042.010276285553	646.793273469114	339.802130831070	1139.681174947936	586.516943805651	407.918072133842	1166.393985581122	520.963673195654	403.612911406282	1150.393061521455	447.989430841135	389.400104122361	1087.128249631650	319.060416596978	332.845190221035	1171.588412718547	219.476598309600	390.955520875940	929.417837764247	391.956706732559	634.651243699554	845.801394586779	301.941162030212	701.741991983085	867.724441913276	200.836486910063	638.797936993170	712.534762163874	45.522155383207	617.342024869329	884.487570724257	96.385212029904	649.551084470183	796.049774575448	37.502419928230	690.244761598838	1004.463740216901	40.734810218972	678.974168410530	1087.104083833297	40.119922110796	420.778213717415	1165.346693933212	46.681597469110	345.394391731607	1233.768961443663	123.261725040514	371.940365958967	1369.130215117521	95.042549957772	353.665783817730	855.752650426148	1100.817324843171	277.428164591570	842.469261231762	839.508804739161	278.502297742021	1204.256674256094	1103.482661226767	779.621895945557	1363.936739336823	1220.589793048566	633.529311471278	
23	49.081285714286	822.963763287324	1009.539847830871	561.531073006108	1008.961940203502	1424.319136427454	365.912195291842	1128.300379084924	1339.179831949656	506.300868654679	1081.812564171805	1420.638391854244	688.460319948193	1040.123091546074	1480.334798961619	514.959397732817	1051.787625288481	924.896062140842	654.480844759945	1014.307045848075	948.716091040457	381.073367506281	1040.431735325151	712.882426918101	628.452507739177	936.973056858270	625.676196696393	697.975144107002	989.974444229688	555.874591016688	615.295321023991	967.360238301644	472.226015158722	621.954461341524	1087.421208153648	769.587843685906	419.068026877260	1040.938170610074	643.206927758562	338.747629619499	1139.041935918194	582.723538892457	405.901671044675	1164.192996248242	516.577037280308	402.421056492262	1148.107127070912	443.764137208745	388.488183672468	1083.588470226043	315.051596496716	333.392443853331	1167.690356813510	215.372783465322	391.597017032954	925.994803777961	390.508900246542	633.275001740242	841.485320843817	301.898968262455	701.027555796956	861.705281161657	200.349949589278	638.306692270199	704.875780102402	46.139413623707	617.532469855645	877.003739071540	96.458604250565	649.582896036450	788.436809960283	37.786349594669	690.345643954374	996.832115275216	40.399835679082	679.063035928840	1081.094121594423	38.670101305659	422.747477205479	1158.900651929982	43.653548507605	346.762721064641	1229.139283473699	118.159068881849	373.195448048186	1363.678659401575	86.671668307526	354.078675264539	855.380206640588	1099.921234384844	275.098182018991	841.690971583142	838.473267276910	277.187864569370	1207.801267933040	1103.758336263176	776.138799758711	1364.267045807042	1223.920686537886	629.035892572885	
